<svg xmlns="http://www.w3.org/2000/svg" width="32" height="32">
    <path d="M26.5 9.5H4A1.5 1.5 0 0 0 2.5 11v6a12.489 12.489 0 0 0 3.348 8.508l-.007-.008H4a1.5 1.5 0 0 0 0 3H19.565l.024.001.016-.001H26a1.5 1.5 0 0 0 0-3h-1.841a12.584 12.584 0 0 0 2.468-3.919l.03-.085A5.508 5.508 0 0 0 32 16v-1a5.507 5.507 0 0 0-5.5-5.5zm-15.747 16c-3.135-1.6-5.246-4.803-5.253-8.499V12.5h19V17a9.474 9.474 0 0 1-.365 2.604l.016-.067a9.595 9.595 0 0 1-4.85 5.938l-.054.025zM29 16a2.503 2.503 0 0 1-1.554 2.313l-.017.006c.045-.395.071-.854.071-1.319v-4.29A2.508 2.508 0 0 1 29 15zM8.5 6V3a1.5 1.5 0 0 1 3 0v3a1.5 1.5 0 0 1-3 0zm5 0V3a1.5 1.5 0 0 1 3 0v3a1.5 1.5 0 0 1-3 0zm5 0V3a1.5 1.5 0 0 1 3 0v3a1.5 1.5 0 0 1-3 0z"/>
</svg>
